<svg xmlns="http://www.w3.org/2000/svg" viewBox="131.2 0 434.4 400" style="max-height: 500px" width="434.4" height="400">
 <style>
  #eL4hDz8x6Bo8_tr {animation: eL4hDz8x6Bo8_tr__tr 10000ms linear infinite alternate-reverse forwards}@keyframes eL4hDz8x6Bo8_tr__tr { 0% {transform: translate(18.200001px,16.059999px) rotate(0deg);animation-timing-function: cubic-bezier(1,0,0,1)} 100% {transform: translate(18.200001px,16.059999px) rotate(360deg)}} #eL4hDz8x6Bo8 {animation: eL4hDz8x6Bo8_s_da 10000ms linear infinite alternate-reverse forwards}@keyframes eL4hDz8x6Bo8_s_da { 0% {stroke-dasharray: 1;animation-timing-function: cubic-bezier(0.95,0.05,0.795,0.035)} 100% {stroke-dasharray: 80.32}} #eL4hDz8x6Bo9_tr {animation: eL4hDz8x6Bo9_tr__tr 10000ms linear infinite alternate-reverse forwards}@keyframes eL4hDz8x6Bo9_tr__tr { 0% {transform: translate(18.2px,16.065px) rotate(0deg);animation-timing-function: cubic-bezier(0.42,0,0.58,1)} 100% {transform: translate(18.2px,16.065px) rotate(90deg)}} #eL4hDz8x6Bo10 {animation: eL4hDz8x6Bo10_s_da 10000ms linear infinite alternate-reverse forwards}@keyframes eL4hDz8x6Bo10_s_da { 0% {stroke-dasharray: 1.43, 1.43, 0.29, 0.86, 0.29, 1.43;animation-timing-function: cubic-bezier(0.42,0,0.58,1)} 100% {stroke-dasharray: 5, 6, 5, 6}} #eL4hDz8x6Bo13_tr {animation: eL4hDz8x6Bo13_tr__tr 10000ms linear infinite alternate-reverse forwards}@keyframes eL4hDz8x6Bo13_tr__tr { 0% {transform: translate(18.205px,16.065px) rotate(0deg);animation-timing-function: cubic-bezier(0.42,0,0.58,1)} 100% {transform: translate(18.205px,16.065px) rotate(180deg)}} #eL4hDz8x6Bo14 {animation: eL4hDz8x6Bo14_s_da 10000ms linear infinite alternate-reverse forwards}@keyframes eL4hDz8x6Bo14_s_da { 0% {stroke-dasharray: 2, 5, 2, 5;animation-timing-function: cubic-bezier(0.42,0,0.58,1)} 100% {stroke-dasharray: 0.29, 1.43, 0.29, 1.43, 0.29, 1.43, 1.14, 1.43, 1.14, 1.43}} #eL4hDz8x6Bo17_tr {animation: eL4hDz8x6Bo17_tr__tr 10000ms linear infinite alternate-reverse forwards}@keyframes eL4hDz8x6Bo17_tr__tr { 0% {transform: translate(30.372801px,24.690001px) rotate(0deg);animation-timing-function: cubic-bezier(0.42,0,0.58,1)} 100% {transform: translate(30.372801px,24.690001px) rotate(-180deg)}} #eL4hDz8x6Bo22 {animation: eL4hDz8x6Bo22_s_do 10000ms linear infinite alternate-reverse forwards}@keyframes eL4hDz8x6Bo22_s_do { 0% {stroke-dashoffset: 20.15;animation-timing-function: cubic-bezier(0.42,0,0.58,1)} 100% {stroke-dashoffset: 0}} #eL4hDz8x6Bo25_ts {animation: eL4hDz8x6Bo25_ts__ts 10000ms linear infinite alternate-reverse forwards}@keyframes eL4hDz8x6Bo25_ts__ts { 0% {transform: translate(4.25px,1.76px) scale(1,1)} 2% {transform: translate(4.25px,1.76px) scale(1,1)} 4% {transform: translate(4.25px,1.76px) scale(0,0)} 7.5% {transform: translate(4.25px,1.76px) scale(1,1)} 13% {transform: translate(4.25px,1.76px) scale(0,0)} 15% {transform: translate(4.25px,1.76px) scale(1,1)} 22% {transform: translate(4.25px,1.76px) scale(1,1)} 23% {transform: translate(4.25px,1.76px) scale(0,0)} 25% {transform: translate(4.25px,1.76px) scale(1,1)} 26% {transform: translate(4.25px,1.76px) scale(0,0)} 38% {transform: translate(4.25px,1.76px) scale(0,0)} 40% {transform: translate(4.25px,1.76px) scale(1,1)} 48% {transform: translate(4.25px,1.76px) scale(0,0)} 50% {transform: translate(4.25px,1.76px) scale(1,1)} 59% {transform: translate(4.25px,1.76px) scale(1,1)} 60% {transform: translate(4.25px,1.76px) scale(0,0)} 75% {transform: translate(4.25px,1.76px) scale(1,1)} 76% {transform: translate(4.25px,1.76px) scale(0,0)} 85% {transform: translate(4.25px,1.76px) scale(0,0)} 87% {transform: translate(4.25px,1.76px) scale(1,1)} 100% {transform: translate(4.25px,1.76px) scale(1,1)}} #eL4hDz8x6Bo28_ts {animation: eL4hDz8x6Bo28_ts__ts 10000ms linear infinite alternate-reverse forwards}@keyframes eL4hDz8x6Bo28_ts__ts { 0% {transform: translate(0.43px,8.2px) scale(0,0)} 4% {transform: translate(0.43px,8.2px) scale(0,0)} 5% {transform: translate(0.43px,8.2px) scale(1,1)} 10% {transform: translate(0.43px,8.2px) scale(0,0)} 13% {transform: translate(0.43px,8.2px) scale(1,1)} 25% {transform: translate(0.43px,8.2px) scale(1,1)} 26% {transform: translate(0.43px,8.2px) scale(0,0)} 38% {transform: translate(0.43px,8.2px) scale(1,1)} 39% {transform: translate(0.43px,8.2px) scale(0,0)} 53% {transform: translate(0.43px,8.2px) scale(1,1)} 54% {transform: translate(0.43px,8.2px) scale(0,0)} 71% {transform: translate(0.43px,8.2px) scale(1,1)} 72% {transform: translate(0.43px,8.2px) scale(0,0)} 81% {transform: translate(0.43px,8.2px) scale(0,0)} 83% {transform: translate(0.43px,8.2px) scale(1,1)} 92% {transform: translate(0.43px,8.2px) scale(0,0)} 94% {transform: translate(0.43px,8.2px) scale(1,1)} 100% {transform: translate(0.43px,8.2px) scale(1,1)}} #eL4hDz8x6Bo31_ts {animation: eL4hDz8x6Bo31_ts__ts 10000ms linear infinite alternate-reverse forwards}@keyframes eL4hDz8x6Bo31_ts__ts { 0% {transform: translate(34.33px,21.679999px) scale(1,1)} 5% {transform: translate(34.33px,21.679999px) scale(1,1)} 10% {transform: translate(34.33px,21.679999px) scale(0,0)} 20% {transform: translate(34.33px,21.679999px) scale(0,0)} 22% {transform: translate(34.33px,21.679999px) scale(1,1)} 30% {transform: translate(34.33px,21.679999px) scale(1,1)} 31% {transform: translate(34.33px,21.679999px) scale(0,0)} 33% {transform: translate(34.33px,21.679999px) scale(1,1)} 34% {transform: translate(34.33px,21.679999px) scale(0,0)} 52% {transform: translate(34.33px,21.679999px) scale(0,0)} 54% {transform: translate(34.33px,21.679999px) scale(1,1)} 62% {transform: translate(34.33px,21.679999px) scale(0,0)} 64% {transform: translate(34.33px,21.679999px) scale(1,1)} 72% {transform: translate(34.33px,21.679999px) scale(1,1)} 73% {transform: translate(34.33px,21.679999px) scale(0,0)} 75% {transform: translate(34.33px,21.679999px) scale(1,1)} 76% {transform: translate(34.33px,21.679999px) scale(0,0)} 94% {transform: translate(34.33px,21.679999px) scale(0,0)} 96% {transform: translate(34.33px,21.679999px) scale(1,1)} 100% {transform: translate(34.33px,21.679999px) scale(1,1)}} #eL4hDz8x6Bo34 {animation: eL4hDz8x6Bo34_s_do 10000ms linear infinite alternate-reverse forwards}@keyframes eL4hDz8x6Bo34_s_do { 0% {stroke-dashoffset: 0} 35% {stroke-dashoffset: 0} 45% {stroke-dashoffset: 24.4} 80% {stroke-dashoffset: 24.4} 90% {stroke-dashoffset: 0} 100% {stroke-dashoffset: 0}} #eL4hDz8x6Bo35 {animation: eL4hDz8x6Bo35_s_do 10000ms linear infinite alternate-reverse forwards}@keyframes eL4hDz8x6Bo35_s_do { 0% {stroke-dashoffset: 0} 10% {stroke-dashoffset: 0} 20% {stroke-dashoffset: 7.9} 50% {stroke-dashoffset: 7.9} 60% {stroke-dashoffset: 0} 70% {stroke-dashoffset: 7.9} 100% {stroke-dashoffset: 7.9}} #eL4hDz8x6Bo36_ts {animation: eL4hDz8x6Bo36_ts__ts 10000ms linear infinite alternate-reverse forwards}@keyframes eL4hDz8x6Bo36_ts__ts { 0% {transform: translate(29.96px,30.660001px) scale(0,0)} 6% {transform: translate(29.96px,30.660001px) scale(0,0)} 7% {transform: translate(29.96px,30.660001px) scale(1,1)} 14% {transform: translate(29.96px,30.660001px) scale(0,0)} 17% {transform: translate(29.96px,30.660001px) scale(1,1)} 22% {transform: translate(29.96px,30.660001px) scale(1,1)} 23% {transform: translate(29.96px,30.660001px) scale(0,0)} 29% {transform: translate(29.96px,30.660001px) scale(1,1)} 30% {transform: translate(29.96px,30.660001px) scale(0,0)} 41% {transform: translate(29.96px,30.660001px) scale(1,1)} 42% {transform: translate(29.96px,30.660001px) scale(0,0)} 50% {transform: translate(29.96px,30.660001px) scale(1,1)} 51% {transform: translate(29.96px,30.660001px) scale(0,0)} 67% {transform: translate(29.96px,30.660001px) scale(0,0)} 69% {transform: translate(29.96px,30.660001px) scale(1,1)} 78% {transform: translate(29.96px,30.660001px) scale(0,0)} 80% {transform: translate(29.96px,30.660001px) scale(1,1)} 100% {transform: translate(29.96px,30.660001px) scale(1,1)}} #eL4hDz8x6Bo44_to {animation: eL4hDz8x6Bo44_to__to 10000ms linear infinite alternate-reverse forwards}@keyframes eL4hDz8x6Bo44_to__to { 0% {transform: translate(3.629425px,1.322539px);animation-timing-function: cubic-bezier(0.42,0,0.58,1)} 100% {transform: translate(-0.860437px,1.321531px)}}
 </style>
 <g class="layer">
  <title>Layer 1</title>
  <g transform="matrix(10.286973 0 0 10.286973 160.739486 34.318813)" id="eL4hDz8x6Bo3" clip-rule="evenodd">
   <g id="eL4hDz8x6Bo4" display="none" clip-rule="evenodd">
    <path stroke-width="0.29" stroke-miterlimit="2.61" stroke-linejoin="round" stroke-linecap="round" stroke="rgb(102,255,204)" id="eL4hDz8x6Bo5" fill-rule="evenodd" fill="none" d="m22.53,19.22c-0.89,-0.29 0.1,-1.47 -1.12,-1.56c-0.54,-0.03 -1.37,0.57 -1.38,-0.72c0,-0.3 0.06,-0.9 -0.1,-1.11c-0.49,-0.66 -2.35,-0.38 -2.26,-1.36c0.07,-0.7 0.97,-0.41 0.34,-1.16c-0.43,-0.5 -0.91,-0.9 -0.13,-1.4c0.35,-0.23 0.98,-0.7 0.7,-1.16" clip-rule="evenodd"/>
    <path stroke-width="0.29" stroke-miterlimit="2.61" stroke-linejoin="round" stroke-linecap="round" stroke="rgb(102,255,204)" id="eL4hDz8x6Bo6" fill-rule="evenodd" fill="none" d="m14.61,20.04c-0.08,-0.52 0.35,-0.36 0.4,-1.06c0.11,-1.43 -1.15,-0.39 -0.04,-2.15c0.44,-0.69 0.05,-1.63 -0.75,-1.55c-1.18,0.12 -0.59,0.74 -1.28,0.7m0.32,-1.8c0.49,-0.11 0.95,0.5 1.44,-0.21c0.35,-0.51 -0.3,-0.75 0.33,-0.99c0.6,-0.23 1.03,-0.69 0.5,-1.47" clip-rule="evenodd"/>
   </g>
   <path stroke-width="0.29" stroke-miterlimit="2.61" stroke-linejoin="round" stroke-linecap="round" stroke="rgb(102,255,204)" id="eL4hDz8x6Bo7" fill-rule="evenodd" fill="none" display="none" d="m18.2,10.72c2.95,0 5.35,2.39 5.35,5.34c0,2.95 -2.4,5.35 -5.35,5.35c-2.95,0 -5.34,-2.4 -5.34,-5.35c0,-2.95 2.39,-5.34 5.34,-5.34z" clip-rule="evenodd"/>
   <g transform="translate(18.200001,16.059999) rotate(360)" id="eL4hDz8x6Bo8_tr">
    <path transform="translate(-18.200001,-16.059999)" stroke-width="0.29" stroke-miterlimit="2.61" stroke-dashoffset="40.16" stroke-dasharray="80.32" stroke="rgb(153,0,255)" id="eL4hDz8x6Bo8" fill-rule="evenodd" fill="none" d="m18.2,9.67c3.53,0 6.39,2.86 6.39,6.39c0,3.53 -2.86,6.39 -6.39,6.39c-3.53,0 -6.39,-2.86 -6.39,-6.39c0,-3.53 2.86,-6.39 6.39,-6.39z" clip-rule="evenodd"/>
   </g>
   <g transform="translate(18.2,16.065) rotate(90)" id="eL4hDz8x6Bo9_tr">
    <g transform="translate(-18.2,-16.065)" id="eL4hDz8x6Bo9">
     <path transform="matrix(0.368913 0.929464 -0.929464 0.368913 26.412977 -6.780988)" stroke-width="0.29" stroke-miterlimit="2.61" stroke-dasharray="5,6,5,6" stroke="rgb(203,181,255)" id="eL4hDz8x6Bo10" fill-rule="evenodd" fill="none" d="m18.2,5.7c5.72,0 10.36,4.64 10.36,10.36c0,5.73 -4.64,10.36 -10.36,10.36c-5.72,0 -10.36,-4.63 -10.36,-10.36c0,-5.72 4.64,-10.36 10.36,-10.36z" clip-rule="evenodd"/>
     <circle transform="matrix(1 0 0 1 7.84 15.73)" stroke-width="0.29" stroke-miterlimit="2.61" stroke="rgb(203,181,255)" r="1.92" id="eL4hDz8x6Bo11" fill-rule="evenodd" fill="rgb(2,9,23)" clip-rule="evenodd"/>
     <circle transform="matrix(1 0 0 1 27.780836 12.28)" stroke-width="0.29" stroke-miterlimit="2.61" stroke="rgb(230,230,230)" r="0.77" id="eL4hDz8x6Bo12" fill-rule="evenodd" fill="rgb(2,9,23)" clip-rule="evenodd"/>
    </g>
   </g>
   <g transform="translate(18.205,16.065) rotate(180)" id="eL4hDz8x6Bo13_tr">
    <g transform="translate(-18.205,-16.065)" id="eL4hDz8x6Bo13">
     <path transform="matrix(0.929644 -0.36846 0.36846 0.929644 -4.636982 7.835899)" stroke-width="0.29" stroke-miterlimit="2.61" stroke-linejoin="round" stroke-linecap="round" stroke-dasharray="0.29,1.43,0.29,1.43,0.29,1.43,1.14,1.43,1.14,1.43" stroke="rgb(0,204,255)" id="eL4hDz8x6Bo14" fill-rule="evenodd" fill="none" d="m18.2,1.14c8.24,0 14.92,6.68 14.92,14.92c0,8.24 -6.68,14.92 -14.92,14.92c-8.24,0 -14.92,-6.68 -14.92,-14.92c0,-8.24 6.68,-14.92 14.92,-14.92z" clip-rule="evenodd"/>
     <circle transform="matrix(1 0 0 1 12.4 2.31)" stroke-width="0.29" stroke-miterlimit="2.61" stroke="rgb(255,102,0)" r="2.17" id="eL4hDz8x6Bo15" fill-rule="evenodd" fill="rgb(2,9,23)" clip-rule="evenodd"/>
     <circle transform="matrix(1 0 0 1 9.87 28.44)" stroke-width="0.29" stroke-miterlimit="2.61" stroke="rgb(255,204,0)" r="0.77" id="eL4hDz8x6Bo16" fill-rule="evenodd" fill="rgb(2,9,23)" clip-rule="evenodd"/>
     <g transform="translate(30.372801,24.690001) rotate(-180)" id="eL4hDz8x6Bo17_tr">
      <g transform="translate(-30.372801,-24.690001)" id="eL4hDz8x6Bo17">
       <circle transform="matrix(1 0 0 1 30.37 24.69)" stroke-width="0.29" stroke-miterlimit="2.61" stroke="rgb(255,0,102)" r="2.17" id="eL4hDz8x6Bo18" fill-rule="evenodd" fill="rgb(2,9,23)" clip-rule="evenodd"/>
       <g id="eL4hDz8x6Bo19" clip-rule="evenodd" clip-path="url(#eL4hDz8x6Bo23)">
        <g id="eL4hDz8x6Bo20">
         <g id="eL4hDz8x6Bo21" clip-rule="evenodd">
          <circle transform="matrix(1.92124 -0.514796 0.113793 0.424681 30.3728 24.6945)" stroke-width="0.29" stroke-miterlimit="2.61" stroke-dasharray="1.43,0.29,0.29,0.29,0.29,0.29" stroke="rgb(204,255,204)" r="1.92" id="eL4hDz8x6Bo22" fill-rule="evenodd" fill="none" clip-rule="evenodd"/>
         </g>
        </g>
        <clipPath id="eL4hDz8x6Bo23">
         <path id="eL4hDz8x6Bo24" fill-rule="evenodd" fill="rgb(0,0,0)" d="m28.11,24.18c-1.21,0.54 -1.95,1.16 -1.83,1.61c0.17,0.66 2.15,0.71 4.41,0.1c2.27,-0.61 3.96,-1.63 3.78,-2.29c-0.12,-0.45 -1.08,-0.62 -2.39,-0.48c0.25,0.27 0.44,0.61 0.54,0.98l-4.49,1.2c-0.05,-0.19 -0.08,-0.4 -0.08,-0.61c0,-0.17 0.02,-0.34 0.06,-0.51z" clip-rule="evenodd"/>
        </clipPath>
       </g>
      </g>
     </g>
    </g>
   </g>
   <g transform="translate(4.25,1.76) scale(1,1)" id="eL4hDz8x6Bo25_ts">
    <g transform="translate(-4.25,-1.76)" id="eL4hDz8x6Bo25">
     <line y2="2.22" y1="1.3" x2="3.79" x1="4.71" stroke-width="0.29" stroke-miterlimit="2.61" stroke-linejoin="round" stroke-linecap="round" stroke="rgb(153,255,255)" id="eL4hDz8x6Bo26" fill-rule="evenodd" fill="none" clip-rule="evenodd"/>
     <line y2="2.22" y1="1.3" x2="4.71" x1="3.79" stroke-width="0.29" stroke-miterlimit="2.61" stroke-linejoin="round" stroke-linecap="round" stroke="rgb(153,255,255)" id="eL4hDz8x6Bo27" fill-rule="evenodd" fill="none" clip-rule="evenodd"/>
    </g>
   </g>
   <g transform="translate(0.43,8.2) scale(1,1)" id="eL4hDz8x6Bo28_ts">
    <g transform="translate(-0.43,-8.2)" id="eL4hDz8x6Bo28">
     <line y2="8.49" y1="7.91" x2="0.14" x1="0.72" stroke-width="0.29" stroke-miterlimit="2.61" stroke-linejoin="round" stroke-linecap="round" stroke="rgb(255,255,204)" id="eL4hDz8x6Bo29" fill-rule="evenodd" fill="none" clip-rule="evenodd"/>
     <line y2="8.49" y1="7.91" x2="0.72" x1="0.14" stroke-width="0.29" stroke-miterlimit="2.61" stroke-linejoin="round" stroke-linecap="round" stroke="rgb(255,255,204)" id="eL4hDz8x6Bo30" fill-rule="evenodd" fill="none" clip-rule="evenodd"/>
    </g>
   </g>
   <g transform="translate(34.33,21.679999) scale(1,1)" id="eL4hDz8x6Bo31_ts">
    <g transform="translate(-34.33,-21.679999)" id="eL4hDz8x6Bo31">
     <line y2="21.97" y1="21.39" x2="34.04" x1="34.62" stroke-width="0.29" stroke-miterlimit="2.61" stroke-linejoin="round" stroke-linecap="round" stroke="rgb(153,255,255)" id="eL4hDz8x6Bo32" fill-rule="evenodd" fill="none" clip-rule="evenodd"/>
     <line y2="21.97" y1="21.39" x2="34.62" x1="34.04" stroke-width="0.29" stroke-miterlimit="2.61" stroke-linejoin="round" stroke-linecap="round" stroke="rgb(153,255,255)" id="eL4hDz8x6Bo33" fill-rule="evenodd" fill="none" clip-rule="evenodd"/>
    </g>
   </g>
   <polyline stroke-width="0.29" stroke-miterlimit="2.61" stroke-linejoin="round" stroke-linecap="round" stroke-dasharray="6.1" stroke="rgb(255,204,0)" points="34.54,2.1 33.67,2.96 32.81,2.1 31.94,2.96 31.08,2.1 30.21,2.96" id="eL4hDz8x6Bo34" fill-rule="evenodd" fill="none" clip-rule="evenodd"/>
   <polyline stroke-width="0.29" stroke-miterlimit="2.61" stroke-linejoin="round" stroke-linecap="round" stroke-dashoffset="7.9" stroke-dasharray="3.95" stroke="rgb(255,0,255)" points="0.82,25.14 1.37,25.7 1.93,25.14 2.49,25.7 3.05,25.14 3.6,25.7" id="eL4hDz8x6Bo35" fill-rule="evenodd" fill="none" clip-rule="evenodd"/>
   <g transform="translate(29.96,30.660001) scale(1,1)" id="eL4hDz8x6Bo36_ts">
    <g transform="translate(-29.96,-30.660001)" id="eL4hDz8x6Bo36">
     <line y2="31.12" y1="30.2" x2="29.5" x1="30.42" stroke-width="0.29" stroke-miterlimit="2.61" stroke-linejoin="round" stroke-linecap="round" stroke="rgb(204,255,204)" id="eL4hDz8x6Bo37" fill-rule="evenodd" fill="none" clip-rule="evenodd"/>
     <line y2="31.12" y1="30.2" x2="30.42" x1="29.5" stroke-width="0.29" stroke-miterlimit="2.61" stroke-linejoin="round" stroke-linecap="round" stroke="rgb(204,255,204)" id="eL4hDz8x6Bo38" fill-rule="evenodd" fill="none" clip-rule="evenodd"/>
    </g>
   </g>
   <path id="eL4hDz8x6Bo39" fill-rule="evenodd" fill="none" d="m28.11,24.18c-1.21,0.54 -1.95,1.16 -1.83,1.61c0.17,0.66 2.15,0.71 4.41,0.1c2.27,-0.61 3.96,-1.63 3.78,-2.29c-0.12,-0.45 -1.08,-0.62 -2.39,-0.48c0.25,0.27 0.44,0.61 0.54,0.98l-4.49,1.2c-0.05,-0.19 -0.08,-0.4 -0.08,-0.61c0,-0.17 0.02,-0.34 0.06,-0.51z" clip-rule="evenodd"/>
   <g transform="matrix(3.8 0 0 3.8 12.67372 10.513009)" id="eL4hDz8x6Bo40" clip-rule="evenodd">
    <g id="eL4hDz8x6Bo41" clip-rule="evenodd" clip-path="url(#eL4hDz8x6Bo51)">
     <g id="eL4hDz8x6Bo42">
      <g id="eL4hDz8x6Bo43" clip-rule="evenodd">
       <g transform="translate(-0.860437,1.321531)" id="eL4hDz8x6Bo44_to">
        <g transform="translate(-3.631477,-1.321882)" id="eL4hDz8x6Bo44" clip-rule="evenodd">
         <path stroke-width="0.08" stroke-miterlimit="2.61" stroke-linejoin="round" stroke-linecap="round" stroke="rgb(102,255,204)" id="eL4hDz8x6Bo45" fill-rule="evenodd" fill="none" d="m2.62,2.43c0.05,0.05 0.26,-0.19 0.09,-0.37c-0.08,-0.08 -0.3,-0.68 0.04,-0.74c0.14,-0.03 0.21,-0.07 0.26,-0.21c0.08,-0.17 -1.06,-0.15 -0.43,-0.35c0.07,-0.02 0.12,0.11 0.29,0.11c0.38,0.02 0.77,-0.63 0.04,-0.6c-0.51,0.03 -0.29,-0.27 -0.82,-0.2c-0.34,0.04 -0.29,-0.19 -0.67,-0.04c-0.23,0.09 0.52,0.09 -0.04,0.45c-0.21,0.13 -0.08,0.24 0.03,0.38c0.17,0.19 -0.07,0.12 -0.09,0.3c-0.02,0.26 0.47,0.19 0.6,0.37c0.05,0.05 0.03,0.21 0.03,0.29c0,0.35 0.22,0.19 0.37,0.2c0.33,0.02 0.06,0.33 0.3,0.41z" clip-rule="evenodd"/>
         <path stroke-width="0.08" stroke-miterlimit="2.61" stroke-linejoin="round" stroke-linecap="round" stroke="rgb(102,255,204)" id="eL4hDz8x6Bo46" fill-rule="evenodd" fill="none" d="m0.75,0.37c-0.07,-0.16 -1.44,-0.05 -1.28,0.19c0.1,0.14 0.4,0.05 0.27,0.33c-0.06,0.13 0.29,0.4 0.33,0.37c0.02,0 0.04,-0.14 0.08,-0.17c0.13,-0.03 0.25,0.13 0.38,-0.06c0.09,-0.14 -0.08,-0.2 0.09,-0.26c0.16,-0.07 0.27,-0.19 0.13,-0.4z" clip-rule="evenodd"/>
         <path stroke-width="0.08" stroke-miterlimit="2.61" stroke-linejoin="round" stroke-linecap="round" stroke="rgb(102,255,204)" id="eL4hDz8x6Bo47" fill-rule="evenodd" fill="none" d="m0.51,2.65c-0.25,0.12 -0.28,-0.51 -0.5,-0.55c-0.2,-0.03 -0.11,-0.31 -0.08,-0.45c0.03,-0.14 -0.14,-0.13 -0.02,-0.23c0.11,-0.08 0.37,-0.03 0.49,-0.04c0.22,-0.02 0.32,0.23 0.2,0.41c-0.29,0.47 0.04,0.2 0.01,0.58c-0.01,0.18 -0.02,0.24 -0.1,0.28z" clip-rule="evenodd"/>
         <path stroke-width="0.08" stroke-miterlimit="2.61" stroke-linejoin="round" stroke-linecap="round" stroke="rgb(102,255,204)" id="eL4hDz8x6Bo48" fill-rule="evenodd" fill="none" d="m7.1,2.43c0.05,0.05 0.27,-0.19 0.09,-0.37c-0.07,-0.08 -0.3,-0.68 0.05,-0.74c0.13,-0.03 0.2,-0.07 0.26,-0.21c0.07,-0.17 -1.07,-0.15 -0.43,-0.35c0.06,-0.02 0.11,0.11 0.29,0.11c0.37,0.02 0.77,-0.63 0.03,-0.6c-0.51,0.03 -0.28,-0.27 -0.81,-0.2c-0.35,0.04 -0.3,-0.19 -0.67,-0.04c-0.24,0.09 0.52,0.09 -0.05,0.45c-0.21,0.13 -0.08,0.24 0.04,0.38c0.17,0.19 -0.08,0.12 -0.09,0.3c-0.03,0.26 0.47,0.19 0.6,0.37c0.04,0.05 0.02,0.21 0.03,0.29c0,0.35 0.22,0.19 0.36,0.2c0.33,0.02 0.06,0.33 0.3,0.41z" clip-rule="evenodd"/>
         <path stroke-width="0.08" stroke-miterlimit="2.61" stroke-linejoin="round" stroke-linecap="round" stroke="rgb(102,255,204)" id="eL4hDz8x6Bo49" fill-rule="evenodd" fill="none" d="m5.23,0.37c-0.07,-0.16 -1.44,-0.05 -1.27,0.19c0.1,0.14 0.4,0.05 0.26,0.33c-0.06,0.13 0.29,0.4 0.34,0.37c0.01,0 0.04,-0.14 0.07,-0.17c0.13,-0.03 0.25,0.13 0.38,-0.06c0.1,-0.14 -0.08,-0.2 0.09,-0.26c0.16,-0.07 0.28,-0.19 0.13,-0.4z" clip-rule="evenodd"/>
         <path stroke-width="0.08" stroke-miterlimit="2.61" stroke-linejoin="round" stroke-linecap="round" stroke="rgb(102,255,204)" id="eL4hDz8x6Bo50" fill-rule="evenodd" fill="none" d="m4.99,2.65c-0.25,0.12 -0.28,-0.51 -0.5,-0.55c-0.19,-0.03 -0.1,-0.31 -0.08,-0.45c0.04,-0.14 -0.14,-0.13 -0.01,-0.23c0.1,-0.08 0.36,-0.03 0.49,-0.04c0.21,-0.02 0.31,0.23 0.2,0.41c-0.3,0.47 0.04,0.2 0.01,0.58c-0.02,0.18 -0.03,0.24 -0.11,0.28z" clip-rule="evenodd"/>
        </g>
       </g>
      </g>
     </g>
     <clipPath id="eL4hDz8x6Bo51">
      <path id="eL4hDz8x6Bo52" fill-rule="evenodd" fill="rgb(0,0,0)" d="m1.46,0.04c0.79,0 1.43,0.64 1.43,1.42c0,0.79 -0.64,1.43 -1.43,1.43c-0.78,0 -1.42,-0.64 -1.42,-1.43c0,-0.78 0.64,-1.42 1.42,-1.42z" clip-rule="evenodd"/>
     </clipPath>
    </g>
    <path stroke-width="0.08" stroke-miterlimit="2.61" stroke-linejoin="round" stroke-linecap="round" stroke="rgb(102,255,204)" id="eL4hDz8x6Bo53" fill-rule="evenodd" fill="none" d="m1.46,0.04c0.79,0 1.43,0.64 1.43,1.42c0,0.79 -0.64,1.43 -1.43,1.43c-0.78,0 -1.42,-0.64 -1.42,-1.43c0,-0.78 0.64,-1.42 1.42,-1.42z" clip-rule="evenodd"/>
   </g>
  </g>
 </g>
</svg>