<?xml version="1.0"?>
<svg xmlns="http://www.w3.org/2000/svg" xmlns:xlink="http://www.w3.org/1999/xlink" xmlns:svgjs="http://svgjs.com/svgjs" version="1.1" width="512" height="512" x="0" y="0" viewBox="0 0 64 64" style="enable-background:new 0 0 512 512" xml:space="preserve" class=""><g><g xmlns="http://www.w3.org/2000/svg" id="Icons"><g><g><g><g><g><path d="m38 60h-26c-2.209 0-4-1.791-4-4v-48c0-2.209 1.791-4 4-4h26c2.209 0 4 1.791 4 4v48c0 2.209-1.791 4-4 4z" fill="#515151" data-original="#0a5078" style="" class=""/></g></g></g></g><g><g><g><g><path d="m42 15.138c-7.89.986-14 7.704-14 15.862s6.11 14.876 14 15.862z" fill="#00000000" data-original="#00325a" style="" class=""/></g></g></g></g><g><g><g><g><path d="m32 8-1.707 1.707c-.188.188-.442.293-.707.293h-9.172c-.265 0-.52-.105-.707-.293l-1.707-1.707h-4c-1.105 0-2 .895-2 2v44c0 1.105.895 2 2 2h22c1.105 0 2-.895 2-2v-44c0-1.105-.895-2-2-2z" fill="#000000" data-original="#f0f0f0" style="" class=""/></g></g></g></g><path d="m38 16.178c-5.863 2.371-10 8.109-10 14.822s4.137 12.451 10 14.822z" fill="#00000000" data-original="#d2d2d2" style="" class=""/><g><g><g><g><g><path d="m19 19h-4c-.552 0-1-.448-1-1v-4c0-.552.448-1 1-1h4c.552 0 1 .448 1 1v4c0 .552-.448 1-1 1z" fill="#00000000" data-original="#d2d2d2" style="" class=""/></g></g></g></g><g><g><g><g><path d="m27 19h-4c-.552 0-1-.448-1-1v-4c0-.552.448-1 1-1h4c.552 0 1 .448 1 1v4c0 .552-.448 1-1 1z" fill="#00000000" data-original="#d2d2d2" style="" class=""/></g></g></g></g><g><g><g><g><path d="m35 19h-4c-.552 0-1-.448-1-1v-4c0-.552.448-1 1-1h4c.552 0 1 .448 1 1v4c0 .552-.448 1-1 1z" fill="#00000000" data-original="#d2d2d2" style="" class=""/></g></g></g></g><g><g><g><g><path d="m19 29h-4c-.552 0-1-.448-1-1v-4c0-.552.448-1 1-1h4c.552 0 1 .448 1 1v4c0 .552-.448 1-1 1z" fill="#00000000" data-original="#d2d2d2" style="" class=""/></g></g></g></g><g><g><g><g><path d="m27 29h-4c-.552 0-1-.448-1-1v-4c0-.552.448-1 1-1h4c.552 0 1 .448 1 1v4c0 .552-.448 1-1 1z" fill="#00000000" data-original="#d2d2d2" style="" class=""/></g></g></g></g><g><g><g><g><path d="m19 39h-4c-.552 0-1-.448-1-1v-4c0-.552.448-1 1-1h4c.552 0 1 .448 1 1v4c0 .552-.448 1-1 1z" fill="#00000000" data-original="#d2d2d2" style="" class=""/></g></g></g></g><g><g><g><g><path d="m27 39h-4c-.552 0-1-.448-1-1v-4c0-.552.448-1 1-1h4c.552 0 1 .448 1 1v4c0 .552-.448 1-1 1z" fill="#00000000" data-original="#d2d2d2" style="" class=""/></g></g></g></g><g><g><g><g><path d="m19 49h-4c-.552 0-1-.448-1-1v-4c0-.552.448-1 1-1h4c.552 0 1 .448 1 1v4c0 .552-.448 1-1 1z" fill="#00000000" data-original="#d2d2d2" style="" class=""/></g></g></g></g><g><g><g><g><path d="m27 49h-4c-.552 0-1-.448-1-1v-4c0-.552.448-1 1-1h4c.552 0 1 .448 1 1v4c0 .552-.448 1-1 1z" fill="#00000000" data-original="#d2d2d2" style="" class=""/></g></g></g></g><g><g><g><g><path d="m35 49h-4c-.552 0-1-.448-1-1v-4c0-.552.448-1 1-1h4c.552 0 1 .448 1 1v4c0 .552-.448 1-1 1z" fill="#00000000" data-original="#d2d2d2" style="" class=""/></g></g></g></g></g><g><g><g><g><path d="m19 18h-4c-.552 0-1-.448-1-1v-4c0-.552.448-1 1-1h4c.552 0 1 .448 1 1v4c0 .552-.448 1-1 1z" fill="#d63447" data-original="#c80a50" style="" class=""/></g></g></g></g><g><g><g><g><path d="m27 18h-4c-.552 0-1-.448-1-1v-4c0-.552.448-1 1-1h4c.552 0 1 .448 1 1v4c0 .552-.448 1-1 1z" fill="#d63447" data-original="#fab400" style="" class=""/></g></g></g></g><g><g><g><g><path d="m35 18h-4c-.552 0-1-.448-1-1v-4c0-.552.448-1 1-1h4c.552 0 1 .448 1 1v4c0 .552-.448 1-1 1z" fill="#d63447" data-original="#00a0c8" style="" class=""/></g></g></g></g><g><g><g><g><path d="m19 28h-4c-.552 0-1-.448-1-1v-4c0-.552.448-1 1-1h4c.552 0 1 .448 1 1v4c0 .552-.448 1-1 1z" fill="#d63447" data-original="#00a0c8" style="" class=""/></g></g></g></g><g><g><g><g><path d="m27 28h-4c-.552 0-1-.448-1-1v-4c0-.552.448-1 1-1h4c.552 0 1 .448 1 1v4c0 .552-.448 1-1 1z" fill="#d63447" data-original="#c80a50" style="" class=""/></g></g></g></g><g><g><g><g><path d="m19 38h-4c-.552 0-1-.448-1-1v-4c0-.552.448-1 1-1h4c.552 0 1 .448 1 1v4c0 .552-.448 1-1 1z" fill="#d63447" data-original="#fab400" style="" class=""/></g></g></g></g><g><g><g><g><path d="m27 38h-4c-.552 0-1-.448-1-1v-4c0-.552.448-1 1-1h4c.552 0 1 .448 1 1v4c0 .552-.448 1-1 1z" fill="#d63447" data-original="#00a0c8" style="" class=""/></g></g></g></g><g><g><g><g><path d="m19 48h-4c-.552 0-1-.448-1-1v-4c0-.552.448-1 1-1h4c.552 0 1 .448 1 1v4c0 .552-.448 1-1 1z" fill="#d63447" data-original="#00a0c8" style="" class=""/></g></g></g></g><g><g><g><g><path d="m27 48h-4c-.552 0-1-.448-1-1v-4c0-.552.448-1 1-1h4c.552 0 1 .448 1 1v4c0 .552-.448 1-1 1z" fill="#d63447" data-original="#c80a50" style="" class=""/></g></g></g></g><g><g><g><g><path d="m35 48h-4c-.552 0-1-.448-1-1v-4c0-.552.448-1 1-1h4c.552 0 1 .448 1 1v4c0 .552-.448 1-1 1z" fill="#d63447" data-original="#fab400" style="" class=""/></g></g></g></g><g><g><g><g><circle cx="44" cy="30" fill="#515151" r="16" data-original="#0a5078" style="" class=""/></g></g></g></g><g><g><g><g><path d="m55.487 28.329-2.88-.96c-.17-.556-.393-1.088-.661-1.593l1.359-2.717c.144-.289.088-.638-.14-.866l-1.357-1.357c-.228-.228-.577-.285-.866-.141l-2.717 1.359c-.505-.269-1.037-.492-1.593-.661l-.96-2.88c-.103-.306-.39-.513-.713-.513h-1.919c-.323 0-.609.207-.711.513l-.96 2.88c-.556.17-1.088.393-1.593.661l-2.717-1.359c-.289-.144-.637-.088-.866.141l-1.357 1.357c-.228.228-.285.577-.14.866l1.359 2.717c-.269.505-.492 1.037-.661 1.593l-2.88.96c-.307.102-.514.389-.514.712v1.919c0 .323.207.609.513.711l2.88.96c.17.556.393 1.088.661 1.593l-1.359 2.717c-.144.289-.088.637.14.866l1.357 1.357c.228.228.577.285.866.14l2.717-1.359c.505.269 1.037.492 1.593.662l.96 2.88c.103.306.39.513.713.513h1.919c.323 0 .609-.207.711-.513l.96-2.88c.556-.17 1.088-.393 1.593-.662l2.717 1.359c.289.144.637.088.866-.14l1.357-1.357c.228-.228.285-.577.14-.866l-1.359-2.717c.269-.505.492-1.037.661-1.593l2.88-.96c.307-.102.514-.389.514-.712v-1.919c0-.322-.207-.609-.513-.711zm-11.487 6.814c-2.84 0-5.143-2.303-5.143-5.143s2.303-5.143 5.143-5.143 5.143 2.303 5.143 5.143-2.303 5.143-5.143 5.143z" fill="#d63447" data-original="#fab400" style="" class=""/></g></g></g></g><g><g><g><g><circle cx="25" cy="53" fill="#515151" r="1" data-original="#0a5078" style="" class=""/></g></g></g></g><g><g><g><g><circle cx="31" cy="53" fill="#515151" r="1" data-original="#0a5078" style="" class=""/></g></g></g></g><g><g><g><g><circle cx="19" cy="53" fill="#515151" r="1" data-original="#0a5078" style="" class=""/></g></g></g></g></g></g></g></svg>
