<svg xmlns="http://www.w3.org/2000/svg" width="434.4" height="400" style="max-height:500px" viewBox="131.2 0 434.4 400"><style>@keyframes eL4hDz8x6Bo8_tr__tr{0%{transform:translate(18.200001px,16.059999px) rotate(0deg);animation-timing-function:cubic-bezier(1,0,0,1)}to{transform:translate(18.200001px,16.059999px) rotate(360deg)}}@keyframes eL4hDz8x6Bo8_s_da{0%{stroke-dasharray:1;animation-timing-function:cubic-bezier(.95,.05,.795,.035)}to{stroke-dasharray:80.32}}@keyframes eL4hDz8x6Bo9_tr__tr{0%{transform:translate(18.2px,16.065px) rotate(0deg);animation-timing-function:cubic-bezier(.42,0,.58,1)}to{transform:translate(18.2px,16.065px) rotate(90deg)}}@keyframes eL4hDz8x6Bo10_s_da{0%{stroke-dasharray:1.43,1.43,.29,.86,.29,1.43;animation-timing-function:cubic-bezier(.42,0,.58,1)}to{stroke-dasharray:5,6,5,6}}@keyframes eL4hDz8x6Bo13_tr__tr{0%{transform:translate(18.205px,16.065px) rotate(0deg);animation-timing-function:cubic-bezier(.42,0,.58,1)}to{transform:translate(18.205px,16.065px) rotate(180deg)}}@keyframes eL4hDz8x6Bo14_s_da{0%{stroke-dasharray:2,5,2,5;animation-timing-function:cubic-bezier(.42,0,.58,1)}to{stroke-dasharray:.29,1.43,.29,1.43,.29,1.43,1.14,1.43,1.14,1.43}}@keyframes eL4hDz8x6Bo17_tr__tr{0%{transform:translate(30.372801px,24.690001px) rotate(0deg);animation-timing-function:cubic-bezier(.42,0,.58,1)}to{transform:translate(30.372801px,24.690001px) rotate(-180deg)}}@keyframes eL4hDz8x6Bo22_s_do{0%{stroke-dashoffset:20.15;animation-timing-function:cubic-bezier(.42,0,.58,1)}to{stroke-dashoffset:0}}@keyframes eL4hDz8x6Bo25_ts__ts{0%,15%,2%,22%,25%,40%,50%,59%,7.5%,75%,87%,to{transform:translate(4.25px,1.76px) scale(1,1)}13%,23%,26%,38%,4%,48%,60%,76%,85%{transform:translate(4.25px,1.76px) scale(0,0)}}@keyframes eL4hDz8x6Bo28_ts__ts{0%,10%,26%,39%,4%,54%,72%,81%,92%{transform:translate(.43px,8.2px) scale(0,0)}13%,25%,38%,5%,53%,71%,83%,94%,to{transform:translate(.43px,8.2px) scale(1,1)}}@keyframes eL4hDz8x6Bo31_ts__ts{0%,22%,30%,33%,5%,54%,64%,72%,75%,96%,to{transform:translate(34.33px,21.679999px) scale(1,1)}10%,20%,31%,34%,52%,62%,73%,76%,94%{transform:translate(34.33px,21.679999px) scale(0,0)}}@keyframes eL4hDz8x6Bo34_s_do{0%,35%,90%,to{stroke-dashoffset:0}45%,80%{stroke-dashoffset:24.4}}@keyframes eL4hDz8x6Bo35_s_do{0%,10%,60%{stroke-dashoffset:0}20%,50%,70%,to{stroke-dashoffset:7.9}}@keyframes eL4hDz8x6Bo36_ts__ts{0%,14%,23%,30%,42%,51%,6%,67%,78%{transform:translate(29.96px,30.660001px) scale(0,0)}17%,22%,29%,41%,50%,69%,7%,80%,to{transform:translate(29.96px,30.660001px) scale(1,1)}}@keyframes eL4hDz8x6Bo44_to__to{0%{transform:translate(3.629425px,1.322539px);animation-timing-function:cubic-bezier(.42,0,.58,1)}to{transform:translate(-.860437px,1.321531px)}}</style><g class="layer"><g id="eL4hDz8x6Bo3" clip-rule="evenodd" transform="translate(160.74 34.319)scale(10.28697)"><g style="animation:eL4hDz8x6Bo8_tr__tr 10000ms linear infinite alternate-reverse forwards"><path fill="none" fill-rule="evenodd" stroke="#90F" stroke-dasharray="80.32" stroke-dashoffset="40.16" stroke-miterlimit="2.61" stroke-width=".29" d="M18.2 9.67c3.53 0 6.39 2.86 6.39 6.39s-2.86 6.39-6.39 6.39-6.39-2.86-6.39-6.39 2.86-6.39 6.39-6.39z" style="animation:eL4hDz8x6Bo8_s_da 10000ms linear infinite alternate-reverse forwards"/></g><g style="animation:eL4hDz8x6Bo9_tr__tr 10000ms linear infinite alternate-reverse forwards" transform="rotate(90 1.067 17.133)"><g id="eL4hDz8x6Bo9" transform="translate(-18.2 -16.065)"><path fill="none" fill-rule="evenodd" stroke="#CBB5FF" stroke-dasharray="5,6,5,6" stroke-miterlimit="2.61" stroke-width=".29" d="M18.2 5.7c5.72 0 10.36 4.64 10.36 10.36 0 5.73-4.64 10.36-10.36 10.36S7.84 21.79 7.84 16.06c0-5.72 4.64-10.36 10.36-10.36z" style="animation:eL4hDz8x6Bo10_s_da 10000ms linear infinite alternate-reverse forwards" transform="rotate(68.351 18.2 16.06)"/><circle id="eL4hDz8x6Bo11" r="1.92" fill="#020917" fill-rule="evenodd" stroke="#CBB5FF" stroke-miterlimit="2.61" stroke-width=".29" clip-rule="evenodd" transform="translate(7.84 15.73)"/><circle id="eL4hDz8x6Bo12" r=".77" fill="#020917" fill-rule="evenodd" stroke="#E6E6E6" stroke-miterlimit="2.61" stroke-width=".29" clip-rule="evenodd" transform="translate(27.78 12.28)"/></g></g><g style="animation:eL4hDz8x6Bo13_tr__tr 10000ms linear infinite alternate-reverse forwards" transform="rotate(180 9.102 8.033)"><g id="eL4hDz8x6Bo13" transform="translate(-18.205 -16.065)"><path fill="none" fill-rule="evenodd" stroke="#0CF" stroke-dasharray="0.29,1.43,0.29,1.43,0.29,1.43,1.14,1.43,1.14,1.43" stroke-linecap="round" stroke-linejoin="round" stroke-miterlimit="2.61" stroke-width=".29" d="M18.2 1.14c8.24 0 14.92 6.68 14.92 14.92S26.44 30.98 18.2 30.98 3.28 24.3 3.28 16.06 9.96 1.14 18.2 1.14" style="animation:eL4hDz8x6Bo14_s_da 10000ms linear infinite alternate-reverse forwards" transform="rotate(-21.621 18.2 16.06)"/><circle id="eL4hDz8x6Bo15" r="2.17" fill="#020917" fill-rule="evenodd" stroke="#F60" stroke-miterlimit="2.61" stroke-width=".29" clip-rule="evenodd" transform="translate(12.4 2.31)"/><circle id="eL4hDz8x6Bo16" r=".77" fill="#020917" fill-rule="evenodd" stroke="#FC0" stroke-miterlimit="2.61" stroke-width=".29" clip-rule="evenodd" transform="translate(9.87 28.44)"/><g style="animation:eL4hDz8x6Bo17_tr__tr 10000ms linear infinite alternate-reverse forwards" transform="rotate(-180 15.186 12.345)"><g id="eL4hDz8x6Bo17" transform="translate(-30.373 -24.69)"><circle id="eL4hDz8x6Bo18" r="2.17" fill="#020917" fill-rule="evenodd" stroke="#F06" stroke-miterlimit="2.61" stroke-width=".29" clip-rule="evenodd" transform="translate(30.37 24.69)"/><g id="eL4hDz8x6Bo19" clip-path="url(#eL4hDz8x6Bo23)" clip-rule="evenodd"><g id="eL4hDz8x6Bo20"><circle id="eL4hDz8x6Bo21" r="1.92" fill="none" fill-rule="evenodd" stroke="#CFC" stroke-dasharray="1.43,0.29,0.29,0.29,0.29,0.29" stroke-miterlimit="2.61" stroke-width=".29" clip-rule="evenodd" style="animation:eL4hDz8x6Bo22_s_do 10000ms linear infinite alternate-reverse forwards" transform="matrix(1.92124 -.5148 .1138 .42468 30.373 24.695)"/></g><clipPath id="eL4hDz8x6Bo23"><path id="eL4hDz8x6Bo24" fill="#000" fill-rule="evenodd" d="M28.11 24.18c-1.21.54-1.95 1.16-1.83 1.61.17.66 2.15.71 4.41.1 2.27-.61 3.96-1.63 3.78-2.29-.12-.45-1.08-.62-2.39-.48.25.27.44.61.54.98l-4.49 1.2c-.05-.19-.08-.4-.08-.61q0-.255.06-.51" clip-rule="evenodd"/></clipPath></g></g></g></g></g><g style="animation:eL4hDz8x6Bo25_ts__ts 10000ms linear infinite alternate-reverse forwards" transform="translate(4.25 1.76)"><g id="eL4hDz8x6Bo25" transform="translate(-4.25 -1.76)"><path id="eL4hDz8x6Bo26" fill="none" fill-rule="evenodd" stroke="#9FF" stroke-linecap="round" stroke-linejoin="round" stroke-miterlimit="2.61" stroke-width=".29" d="m4.71 1.3-.92.92" clip-rule="evenodd"/><path id="eL4hDz8x6Bo27" fill="none" fill-rule="evenodd" stroke="#9FF" stroke-linecap="round" stroke-linejoin="round" stroke-miterlimit="2.61" stroke-width=".29" d="m3.79 1.3.92.92" clip-rule="evenodd"/></g></g><g style="animation:eL4hDz8x6Bo28_ts__ts 10000ms linear infinite alternate-reverse forwards" transform="translate(.43 8.2)"><g id="eL4hDz8x6Bo28" transform="translate(-.43 -8.2)"><path id="eL4hDz8x6Bo29" fill="none" fill-rule="evenodd" stroke="#FFC" stroke-linecap="round" stroke-linejoin="round" stroke-miterlimit="2.61" stroke-width=".29" d="m.72 7.91-.58.58" clip-rule="evenodd"/><path id="eL4hDz8x6Bo30" fill="none" fill-rule="evenodd" stroke="#FFC" stroke-linecap="round" stroke-linejoin="round" stroke-miterlimit="2.61" stroke-width=".29" d="m.14 7.91.58.58" clip-rule="evenodd"/></g></g><g style="animation:eL4hDz8x6Bo31_ts__ts 10000ms linear infinite alternate-reverse forwards" transform="translate(34.33 21.68)"><g id="eL4hDz8x6Bo31" transform="translate(-34.33 -21.68)"><path id="eL4hDz8x6Bo32" fill="none" fill-rule="evenodd" stroke="#9FF" stroke-linecap="round" stroke-linejoin="round" stroke-miterlimit="2.61" stroke-width=".29" d="m34.62 21.39-.58.58" clip-rule="evenodd"/><path id="eL4hDz8x6Bo33" fill="none" fill-rule="evenodd" stroke="#9FF" stroke-linecap="round" stroke-linejoin="round" stroke-miterlimit="2.61" stroke-width=".29" d="m34.04 21.39.58.58" clip-rule="evenodd"/></g></g><path fill="none" fill-rule="evenodd" stroke="#FC0" stroke-dasharray="6.1" stroke-linecap="round" stroke-linejoin="round" stroke-miterlimit="2.61" stroke-width=".29" d="m34.54 2.1-.87.86-.86-.86-.87.86-.86-.86-.87.86" style="animation:eL4hDz8x6Bo34_s_do 10000ms linear infinite alternate-reverse forwards"/><path fill="none" fill-rule="evenodd" stroke="#F0F" stroke-dasharray="3.95" stroke-dashoffset="7.9" stroke-linecap="round" stroke-linejoin="round" stroke-miterlimit="2.61" stroke-width=".29" d="m.82 25.14.55.56.56-.56.56.56.56-.56.55.56" style="animation:eL4hDz8x6Bo35_s_do 10000ms linear infinite alternate-reverse forwards"/><g style="animation:eL4hDz8x6Bo36_ts__ts 10000ms linear infinite alternate-reverse forwards" transform="translate(29.96 30.66)"><g id="eL4hDz8x6Bo36" transform="translate(-29.96 -30.66)"><path id="eL4hDz8x6Bo37" fill="none" fill-rule="evenodd" stroke="#CFC" stroke-linecap="round" stroke-linejoin="round" stroke-miterlimit="2.61" stroke-width=".29" d="m30.42 30.2-.92.92" clip-rule="evenodd"/><path id="eL4hDz8x6Bo38" fill="none" fill-rule="evenodd" stroke="#CFC" stroke-linecap="round" stroke-linejoin="round" stroke-miterlimit="2.61" stroke-width=".29" d="m29.5 30.2.92.92" clip-rule="evenodd"/></g></g><path id="eL4hDz8x6Bo39" fill="none" fill-rule="evenodd" d="M28.11 24.18c-1.21.54-1.95 1.16-1.83 1.61.17.66 2.15.71 4.41.1 2.27-.61 3.96-1.63 3.78-2.29-.12-.45-1.08-.62-2.39-.48.25.27.44.61.54.98l-4.49 1.2c-.05-.19-.08-.4-.08-.61q0-.255.06-.51" clip-rule="evenodd"/><g id="eL4hDz8x6Bo40" clip-rule="evenodd" transform="matrix(3.8 0 0 3.8 12.674 10.513)"><g id="eL4hDz8x6Bo41" clip-path="url(#eL4hDz8x6Bo51)" clip-rule="evenodd"><g id="eL4hDz8x6Bo42"><g id="eL4hDz8x6Bo43" clip-rule="evenodd" style="animation:eL4hDz8x6Bo44_to__to 10000ms linear infinite alternate-reverse forwards" transform="translate(-.86 1.322)"><g id="eL4hDz8x6Bo44" clip-rule="evenodd" transform="translate(-3.631 -1.322)"><path id="eL4hDz8x6Bo45" fill="none" fill-rule="evenodd" stroke="#6FC" stroke-linecap="round" stroke-linejoin="round" stroke-miterlimit="2.61" stroke-width=".08" d="M2.62 2.43c.05.05.26-.19.09-.37-.08-.08-.3-.68.04-.74.14-.03.21-.07.26-.21.08-.17-1.06-.15-.43-.35.07-.02.12.11.29.11.38.02.77-.63.04-.6C2.4.3 2.62 0 2.09.07c-.34.04-.29-.19-.67-.04-.23.09.52.09-.04.45-.21.13-.08.24.03.38.17.19-.07.12-.09.3-.02.26.47.19.6.37.05.05.03.21.03.29 0 .35.22.19.37.2.33.02.06.33.3.41" clip-rule="evenodd"/><path id="eL4hDz8x6Bo46" fill="none" fill-rule="evenodd" stroke="#6FC" stroke-linecap="round" stroke-linejoin="round" stroke-miterlimit="2.61" stroke-width=".08" d="M.75.37C.68.21-.69.32-.53.56c.1.14.4.05.27.33-.06.13.29.4.33.37.02 0 .04-.14.08-.17.13-.03.25.13.38-.06C.62.89.45.83.62.77.78.7.89.58.75.37" clip-rule="evenodd"/><path id="eL4hDz8x6Bo47" fill="none" fill-rule="evenodd" stroke="#6FC" stroke-linecap="round" stroke-linejoin="round" stroke-miterlimit="2.61" stroke-width=".08" d="M.51 2.65c-.25.12-.28-.51-.5-.55-.2-.03-.11-.31-.08-.45s-.14-.13-.02-.23c.11-.08.37-.03.49-.04.22-.02.32.23.2.41-.29.47.04.2.01.58-.01.18-.02.24-.1.28" clip-rule="evenodd"/><path id="eL4hDz8x6Bo48" fill="none" fill-rule="evenodd" stroke="#6FC" stroke-linecap="round" stroke-linejoin="round" stroke-miterlimit="2.61" stroke-width=".08" d="M7.1 2.43c.05.05.27-.19.09-.37-.07-.08-.3-.68.05-.74.13-.03.2-.07.26-.21.07-.17-1.07-.15-.43-.35.06-.02.11.11.29.11.37.02.77-.63.03-.6-.51.03-.28-.27-.81-.2-.35.04-.3-.19-.67-.04-.24.09.52.09-.05.45-.21.13-.08.24.04.38.17.19-.08.12-.09.3-.03.26.47.19.6.37.04.05.02.21.03.29 0 .35.22.19.36.2.33.02.06.33.3.41" clip-rule="evenodd"/><path id="eL4hDz8x6Bo49" fill="none" fill-rule="evenodd" stroke="#6FC" stroke-linecap="round" stroke-linejoin="round" stroke-miterlimit="2.61" stroke-width=".08" d="M5.23.37C5.16.21 3.79.32 3.96.56c.1.14.4.05.26.33-.06.13.29.4.34.37.01 0 .04-.14.07-.17.13-.03.25.13.38-.06.1-.14-.08-.2.09-.26.16-.07.28-.19.13-.4" clip-rule="evenodd"/><path id="eL4hDz8x6Bo50" fill="none" fill-rule="evenodd" stroke="#6FC" stroke-linecap="round" stroke-linejoin="round" stroke-miterlimit="2.61" stroke-width=".08" d="M4.99 2.65c-.25.12-.28-.51-.5-.55-.19-.03-.1-.31-.08-.45.04-.14-.14-.13-.01-.23.1-.08.36-.03.49-.04.21-.02.31.23.2.41-.3.47.04.2.01.58-.02.18-.03.24-.11.28" clip-rule="evenodd"/></g></g></g><clipPath id="eL4hDz8x6Bo51"><path id="eL4hDz8x6Bo52" fill="#000" fill-rule="evenodd" d="M1.46.04c.79 0 1.43.64 1.43 1.42 0 .79-.64 1.43-1.43 1.43a1.425 1.425 0 0 1 0-2.85" clip-rule="evenodd"/></clipPath></g><path id="eL4hDz8x6Bo53" fill="none" fill-rule="evenodd" stroke="#6FC" stroke-linecap="round" stroke-linejoin="round" stroke-miterlimit="2.61" stroke-width=".08" d="M1.46.04c.79 0 1.43.64 1.43 1.42 0 .79-.64 1.43-1.43 1.43a1.425 1.425 0 0 1 0-2.85" clip-rule="evenodd"/></g></g></g></svg>